<?xml version="1.0" standalone="no"?>
<!DOCTYPE svg PUBLIC "-//W3C//DTD SVG 20010904//EN"
 "http://www.w3.org/TR/2001/REC-SVG-20010904/DTD/svg10.dtd">
<svg version="1.0" xmlns="http://www.w3.org/2000/svg"
 width="500.000000pt" height="500.000000pt" viewBox="0 0 500.000000 500.000000"
 preserveAspectRatio="xMidYMid meet">
<metadata>
Created by potrace 1.14, written by Peter Selinger 2001-2017
</metadata>
<g transform="translate(0.000000,500.000000) scale(0.100000,-0.100000)"
fill="#000000" stroke="none">
<path d="M0 2500 l0 -2500 2500 0 2500 0 0 2500 0 2500 -2500 0 -2500 0 0
-2500z m2080 1790 c177 -51 320 -133 453 -260 295 -280 414 -654 322 -1016
-22 -86 -62 -194 -72 -194 -3 0 -35 28 -71 61 -129 119 -278 205 -455 264
-144 48 -255 65 -426 65 -336 0 -605 -97 -886 -318 l-90 -71 -28 82 c-61 180
-78 341 -53 504 67 443 394 789 841 894 114 26 357 21 465 -11z m1382 2 c309
-83 563 -293 700 -579 249 -519 50 -1114 -465 -1388 -231 -123 -492 -155 -741
-90 -124 32 -166 50 -166 70 0 9 23 44 52 78 215 258 318 549 318 897 0 354
-103 631 -318 861 -54 57 -69 79 -59 87 19 15 138 52 235 73 117 25 331 21
444 -9z m-1397 -1392 c104 -23 195 -56 195 -71 0 -5 -26 -38 -58 -72 -263
-283 -383 -711 -312 -1119 42 -248 140 -452 307 -644 29 -34 53 -68 53 -76 0
-17 -47 -37 -157 -67 -247 -67 -490 -43 -728 74 -286 140 -493 397 -572 713
-27 105 -24 401 4 504 108 387 389 654 808 769 94 26 314 20 460 -11z m247
-637 c186 -165 376 -264 613 -319 121 -29 444 -26 571 4 226 53 421 152 608
306 38 31 73 53 77 49 16 -16 58 -143 75 -223 23 -113 15 -341 -16 -453 -81
-298 -275 -548 -533 -687 -285 -154 -647 -164 -934 -26 -229 111 -397 273
-506 491 -127 250 -147 523 -60 800 22 71 38 105 49 105 2 0 27 -21 56 -47z"/>
</g>
</svg>
